<svg width="250" height="478" viewBox="0 0 250 478" fill="none" xmlns="http://www.w3.org/2000/svg">
<rect width="250" height="477.099" fill="#0D6B4F"/>
<rect x="42.9375" y="66.7939" width="164.529" height="343.511" rx="8" fill="white"/>
<path d="M94.3932 191.726V192.944H97.4732V195.282H94.3932V196.682H97.8932V199.16H91.2852V189.248H97.8932V191.726H94.3932ZM107.171 192.65C107.171 193.276 107.026 193.845 106.737 194.358C106.447 194.862 106.018 195.264 105.449 195.562C104.889 195.861 104.207 196.01 103.405 196.01H102.173V199.16H99.0645V189.248H103.405C104.618 189.248 105.547 189.556 106.191 190.172C106.844 190.788 107.171 191.614 107.171 192.65ZM103.055 193.56C103.699 193.56 104.021 193.257 104.021 192.65C104.021 192.044 103.699 191.74 103.055 191.74H102.173V193.56H103.055ZM112.034 199.258C110.849 199.258 109.869 198.983 109.094 198.432C108.329 197.872 107.914 197.056 107.848 195.982H111.152C111.199 196.552 111.451 196.836 111.908 196.836C112.076 196.836 112.216 196.799 112.328 196.724C112.45 196.64 112.51 196.514 112.51 196.346C112.51 196.113 112.384 195.926 112.132 195.786C111.88 195.637 111.488 195.469 110.956 195.282C110.322 195.058 109.794 194.839 109.374 194.624C108.964 194.41 108.609 194.097 108.31 193.686C108.012 193.276 107.867 192.748 107.876 192.104C107.876 191.46 108.04 190.914 108.366 190.466C108.702 190.009 109.155 189.664 109.724 189.43C110.303 189.197 110.952 189.08 111.67 189.08C112.884 189.08 113.845 189.36 114.554 189.92C115.273 190.48 115.651 191.269 115.688 192.286H112.342C112.333 192.006 112.263 191.806 112.132 191.684C112.002 191.563 111.843 191.502 111.656 191.502C111.526 191.502 111.418 191.549 111.334 191.642C111.25 191.726 111.208 191.848 111.208 192.006C111.208 192.23 111.33 192.417 111.572 192.566C111.824 192.706 112.221 192.879 112.762 193.084C113.388 193.318 113.901 193.542 114.302 193.756C114.713 193.971 115.068 194.27 115.366 194.652C115.665 195.035 115.814 195.516 115.814 196.094C115.814 196.701 115.665 197.247 115.366 197.732C115.068 198.208 114.634 198.582 114.064 198.852C113.495 199.123 112.818 199.258 112.034 199.258ZM125.641 197.662H122.337L121.847 199.16H118.585L122.211 189.248H125.795L129.407 199.16H126.131L125.641 197.662ZM124.885 195.324L123.989 192.566L123.093 195.324H124.885ZM138.219 192.65C138.219 193.276 138.075 193.845 137.785 194.358C137.496 194.862 137.067 195.264 136.497 195.562C135.937 195.861 135.256 196.01 134.453 196.01H133.221V199.16H130.113V189.248H134.453C135.667 189.248 136.595 189.556 137.239 190.172C137.893 190.788 138.219 191.614 138.219 192.65ZM134.103 193.56C134.747 193.56 135.069 193.257 135.069 192.65C135.069 192.044 134.747 191.74 134.103 191.74H133.221V193.56H134.103ZM147.311 192.65C147.311 193.276 147.166 193.845 146.877 194.358C146.588 194.862 146.158 195.264 145.589 195.562C145.029 195.861 144.348 196.01 143.545 196.01H142.313V199.16H139.205V189.248H143.545C144.758 189.248 145.687 189.556 146.331 190.172C146.984 190.788 147.311 191.614 147.311 192.65ZM143.195 193.56C143.839 193.56 144.161 193.257 144.161 192.65C144.161 192.044 143.839 191.74 143.195 191.74H142.313V193.56H143.195ZM153.784 189.248V199.16H150.676V189.248H153.784ZM159.066 199.258C157.88 199.258 156.9 198.983 156.126 198.432C155.36 197.872 154.945 197.056 154.88 195.982H158.184C158.23 196.552 158.482 196.836 158.94 196.836C159.108 196.836 159.248 196.799 159.36 196.724C159.481 196.64 159.542 196.514 159.542 196.346C159.542 196.113 159.416 195.926 159.164 195.786C158.912 195.637 158.52 195.469 157.988 195.282C157.353 195.058 156.826 194.839 156.406 194.624C155.995 194.41 155.64 194.097 155.342 193.686C155.043 193.276 154.898 192.748 154.908 192.104C154.908 191.46 155.071 190.914 155.398 190.466C155.734 190.009 156.186 189.664 156.756 189.43C157.334 189.197 157.983 189.08 158.702 189.08C159.915 189.08 160.876 189.36 161.586 189.92C162.304 190.48 162.682 191.269 162.72 192.286H159.374C159.364 192.006 159.294 191.806 159.164 191.684C159.033 191.563 158.874 191.502 158.688 191.502C158.557 191.502 158.45 191.549 158.366 191.642C158.282 191.726 158.24 191.848 158.24 192.006C158.24 192.23 158.361 192.417 158.604 192.566C158.856 192.706 159.252 192.879 159.794 193.084C160.419 193.318 160.932 193.542 161.334 193.756C161.744 193.971 162.099 194.27 162.398 194.652C162.696 195.035 162.846 195.516 162.846 196.094C162.846 196.701 162.696 197.247 162.398 197.732C162.099 198.208 161.665 198.582 161.096 198.852C160.526 199.123 159.85 199.258 159.066 199.258ZM80.3614 210.248V212.712H76.4694V214.084H79.2694V216.422H76.4694V220.16H73.3614V210.248H80.3614ZM86.2441 220.258C85.3108 220.258 84.4521 220.039 83.6681 219.6C82.8934 219.162 82.2774 218.555 81.8201 217.78C81.3628 217.006 81.1341 216.133 81.1341 215.162C81.1341 214.192 81.3628 213.319 81.8201 212.544C82.2774 211.77 82.8934 211.168 83.6681 210.738C84.4521 210.3 85.3108 210.08 86.2441 210.08C87.1774 210.08 88.0314 210.3 88.8061 210.738C89.5808 211.168 90.1921 211.77 90.6401 212.544C91.0974 213.319 91.3261 214.192 91.3261 215.162C91.3261 216.133 91.0974 217.006 90.6401 217.78C90.1921 218.555 89.5761 219.162 88.7921 219.6C88.0174 220.039 87.1681 220.258 86.2441 220.258ZM86.2441 217.36C86.8601 217.36 87.3361 217.164 87.6721 216.772C88.0081 216.371 88.1761 215.834 88.1761 215.162C88.1761 214.481 88.0081 213.944 87.6721 213.552C87.3361 213.151 86.8601 212.95 86.2441 212.95C85.6188 212.95 85.1381 213.151 84.8021 213.552C84.4661 213.944 84.2981 214.481 84.2981 215.162C84.2981 215.834 84.4661 216.371 84.8021 216.772C85.1381 217.164 85.6188 217.36 86.2441 217.36ZM97.4313 220.16L95.5693 216.604H95.5553V220.16H92.4473V210.248H97.0673C97.87 210.248 98.556 210.393 99.1253 210.682C99.6946 210.962 100.119 211.35 100.399 211.844C100.689 212.33 100.833 212.88 100.833 213.496C100.833 214.159 100.647 214.747 100.273 215.26C99.9093 215.774 99.382 216.142 98.6913 216.366L100.847 220.16H97.4313ZM95.5553 214.532H96.7873C97.086 214.532 97.31 214.467 97.4593 214.336C97.6086 214.196 97.6833 213.982 97.6833 213.692C97.6833 213.431 97.604 213.226 97.4453 213.076C97.296 212.927 97.0766 212.852 96.7873 212.852H95.5553V214.532ZM109.61 210.248V212.712H106.978V220.16H103.87V212.712H101.266V210.248H109.61ZM119.623 210.248V220.16H116.515V216.296H113.561V220.16H110.453V210.248H113.561V213.818H116.515V210.248H119.623ZM120.742 215.19C120.742 214.21 120.938 213.338 121.33 212.572C121.731 211.807 122.3 211.214 123.038 210.794C123.775 210.365 124.643 210.15 125.642 210.15C126.5 210.15 127.266 210.314 127.938 210.64C128.619 210.958 129.17 211.41 129.59 211.998C130.019 212.586 130.304 213.272 130.444 214.056H127.168C127.018 213.73 126.804 213.478 126.524 213.3C126.253 213.114 125.94 213.02 125.586 213.02C125.063 213.02 124.648 213.216 124.34 213.608C124.041 214 123.892 214.528 123.892 215.19C123.892 215.853 124.041 216.38 124.34 216.772C124.648 217.164 125.063 217.36 125.586 217.36C125.94 217.36 126.253 217.272 126.524 217.094C126.804 216.908 127.018 216.651 127.168 216.324H130.444C130.304 217.108 130.019 217.794 129.59 218.382C129.17 218.97 128.619 219.428 127.938 219.754C127.266 220.072 126.5 220.23 125.642 220.23C124.643 220.23 123.775 220.02 123.038 219.6C122.3 219.171 121.731 218.574 121.33 217.808C120.938 217.043 120.742 216.17 120.742 215.19ZM136.393 220.258C135.459 220.258 134.601 220.039 133.817 219.6C133.042 219.162 132.426 218.555 131.969 217.78C131.511 217.006 131.283 216.133 131.283 215.162C131.283 214.192 131.511 213.319 131.969 212.544C132.426 211.77 133.042 211.168 133.817 210.738C134.601 210.3 135.459 210.08 136.393 210.08C137.326 210.08 138.18 210.3 138.955 210.738C139.729 211.168 140.341 211.77 140.789 212.544C141.246 213.319 141.475 214.192 141.475 215.162C141.475 216.133 141.246 217.006 140.789 217.78C140.341 218.555 139.725 219.162 138.941 219.6C138.166 220.039 137.317 220.258 136.393 220.258ZM136.393 217.36C137.009 217.36 137.485 217.164 137.821 216.772C138.157 216.371 138.325 215.834 138.325 215.162C138.325 214.481 138.157 213.944 137.821 213.552C137.485 213.151 137.009 212.95 136.393 212.95C135.767 212.95 135.287 213.151 134.951 213.552C134.615 213.944 134.447 214.481 134.447 215.162C134.447 215.834 134.615 216.371 134.951 216.772C135.287 217.164 135.767 217.36 136.393 217.36ZM154.51 210.248V220.16H151.416V215.218L149.89 220.16H147.23L145.704 215.218V220.16H142.596V210.248H146.404L148.588 216.198L150.716 210.248H154.51ZM159.02 210.248V220.16H155.912V210.248H159.02ZM169.93 220.16H166.822L163.532 215.176V220.16H160.424V210.248H163.532L166.822 215.316V210.248H169.93V220.16ZM177.41 213.636C177.289 213.44 177.116 213.291 176.892 213.188C176.668 213.076 176.397 213.02 176.08 213.02C175.483 213.02 175.021 213.216 174.694 213.608C174.367 213.991 174.204 214.518 174.204 215.19C174.204 215.965 174.386 216.544 174.75 216.926C175.114 217.309 175.674 217.5 176.43 217.5C177.149 217.5 177.727 217.211 178.166 216.632H175.688V214.434H180.742V217.542C180.313 218.28 179.72 218.914 178.964 219.446C178.208 219.969 177.251 220.23 176.094 220.23C175.067 220.23 174.171 220.02 173.406 219.6C172.65 219.171 172.067 218.574 171.656 217.808C171.255 217.043 171.054 216.17 171.054 215.19C171.054 214.21 171.255 213.338 171.656 212.572C172.067 211.807 172.65 211.214 173.406 210.794C174.162 210.365 175.049 210.15 176.066 210.15C177.363 210.15 178.418 210.463 179.23 211.088C180.051 211.714 180.537 212.563 180.686 213.636H177.41ZM87.1013 231.248L84.8333 241.16H80.9693L79.8213 235.532L78.6733 241.16H74.8093L72.5413 231.248H75.8873L76.7833 237.492L78.1273 231.248H81.5153L82.8593 237.492L83.7553 231.248H87.1013ZM91.3239 231.248V241.16H88.2159V231.248H91.3239ZM100.512 231.248V233.712H97.8796V241.16H94.7716V233.712H92.1676V231.248H100.512ZM110.525 231.248V241.16H107.417V237.296H104.463V241.16H101.355V231.248H104.463V234.818H107.417V231.248H110.525ZM117.41 233.726V234.944H120.49V237.282H117.41V238.682H120.91V241.16H114.302V231.248H120.91V233.726H117.41ZM128.395 241.16L126.575 238.584L125.063 241.16H121.521L124.783 236.05L121.381 231.248H125.063L126.813 233.726L128.269 231.248H131.811L128.605 236.26L132.077 241.16H128.395ZM132.493 236.19C132.493 235.21 132.689 234.338 133.081 233.572C133.482 232.807 134.051 232.214 134.789 231.794C135.526 231.365 136.394 231.15 137.393 231.15C138.251 231.15 139.017 231.314 139.689 231.64C140.37 231.958 140.921 232.41 141.341 232.998C141.77 233.586 142.055 234.272 142.195 235.056H138.919C138.769 234.73 138.555 234.478 138.275 234.3C138.004 234.114 137.691 234.02 137.337 234.02C136.814 234.02 136.399 234.216 136.091 234.608C135.792 235 135.643 235.528 135.643 236.19C135.643 236.853 135.792 237.38 136.091 237.772C136.399 238.164 136.814 238.36 137.337 238.36C137.691 238.36 138.004 238.272 138.275 238.094C138.555 237.908 138.769 237.651 138.919 237.324H142.195C142.055 238.108 141.77 238.794 141.341 239.382C140.921 239.97 140.37 240.428 139.689 240.754C139.017 241.072 138.251 241.23 137.393 241.23C136.394 241.23 135.526 241.02 134.789 240.6C134.051 240.171 133.482 239.574 133.081 238.808C132.689 238.043 132.493 237.17 132.493 236.19ZM146.422 231.248V241.16H143.314V231.248H146.422ZM155.609 231.248V233.712H152.977V241.16H149.869V233.712H147.265V231.248H155.609ZM159.56 231.248V241.16H156.452V231.248H159.56ZM170.47 241.16H167.362L164.072 236.176V241.16H160.964V231.248H164.072L167.362 236.316V231.248H170.47V241.16ZM177.95 234.636C177.829 234.44 177.656 234.291 177.432 234.188C177.208 234.076 176.937 234.02 176.62 234.02C176.023 234.02 175.561 234.216 175.234 234.608C174.907 234.991 174.744 235.518 174.744 236.19C174.744 236.965 174.926 237.544 175.29 237.926C175.654 238.309 176.214 238.5 176.97 238.5C177.689 238.5 178.267 238.211 178.706 237.632H176.228V235.434H181.282V238.542C180.853 239.28 180.26 239.914 179.504 240.446C178.748 240.969 177.791 241.23 176.634 241.23C175.607 241.23 174.711 241.02 173.946 240.6C173.19 240.171 172.607 239.574 172.196 238.808C171.795 238.043 171.594 237.17 171.594 236.19C171.594 235.21 171.795 234.338 172.196 233.572C172.607 232.807 173.19 232.214 173.946 231.794C174.702 231.365 175.589 231.15 176.606 231.15C177.903 231.15 178.958 231.463 179.77 232.088C180.591 232.714 181.077 233.563 181.226 234.636H177.95ZM86.3859 262.258C85.2005 262.258 84.2205 261.983 83.4459 261.432C82.6805 260.872 82.2652 260.056 82.1999 258.982H85.5039C85.5505 259.552 85.8025 259.836 86.2599 259.836C86.4279 259.836 86.5679 259.799 86.6799 259.724C86.8012 259.64 86.8619 259.514 86.8619 259.346C86.8619 259.113 86.7359 258.926 86.4839 258.786C86.2319 258.637 85.8399 258.469 85.3079 258.282C84.6732 258.058 84.1459 257.839 83.7259 257.624C83.3152 257.41 82.9605 257.097 82.6619 256.686C82.3632 256.276 82.2185 255.748 82.2279 255.104C82.2279 254.46 82.3912 253.914 82.7179 253.466C83.0539 253.009 83.5065 252.664 84.0759 252.43C84.6545 252.197 85.3032 252.08 86.0219 252.08C87.2352 252.08 88.1965 252.36 88.9059 252.92C89.6245 253.48 90.0025 254.269 90.0399 255.286H86.6939C86.6845 255.006 86.6145 254.806 86.4839 254.684C86.3532 254.563 86.1945 254.502 86.0079 254.502C85.8772 254.502 85.7699 254.549 85.6859 254.642C85.6019 254.726 85.5599 254.848 85.5599 255.006C85.5599 255.23 85.6812 255.417 85.9239 255.566C86.1759 255.706 86.5725 255.879 87.1139 256.084C87.7392 256.318 88.2525 256.542 88.6539 256.756C89.0645 256.971 89.4192 257.27 89.7179 257.652C90.0165 258.035 90.1659 258.516 90.1659 259.094C90.1659 259.701 90.0165 260.247 89.7179 260.732C89.4192 261.208 88.9852 261.582 88.4159 261.852C87.8465 262.123 87.1699 262.258 86.3859 262.258ZM94.3659 254.726V255.944H97.4459V258.282H94.3659V259.682H97.8659V262.16H91.2579V252.248H97.8659V254.726H94.3659ZM104.021 262.16L102.159 258.604H102.145V262.16H99.0372V252.248H103.657C104.46 252.248 105.146 252.393 105.715 252.682C106.284 252.962 106.709 253.35 106.989 253.844C107.278 254.33 107.423 254.88 107.423 255.496C107.423 256.159 107.236 256.747 106.863 257.26C106.499 257.774 105.972 258.142 105.281 258.366L107.437 262.16H104.021ZM102.145 256.532H103.377C103.676 256.532 103.9 256.467 104.049 256.336C104.198 256.196 104.273 255.982 104.273 255.692C104.273 255.431 104.194 255.226 104.035 255.076C103.886 254.927 103.666 254.852 103.377 254.852H102.145V256.532ZM118.398 252.248L115.066 262.16H111.048L107.716 252.248H111.02L113.064 259.066L115.094 252.248H118.398ZM122.202 252.248V262.16H119.094V252.248H122.202ZM123.326 257.19C123.326 256.21 123.522 255.338 123.914 254.572C124.315 253.807 124.884 253.214 125.622 252.794C126.359 252.365 127.227 252.15 128.226 252.15C129.084 252.15 129.85 252.314 130.522 252.64C131.203 252.958 131.754 253.41 132.174 253.998C132.603 254.586 132.888 255.272 133.028 256.056H129.752C129.602 255.73 129.388 255.478 129.108 255.3C128.837 255.114 128.524 255.02 128.17 255.02C127.647 255.02 127.232 255.216 126.924 255.608C126.625 256 126.476 256.528 126.476 257.19C126.476 257.853 126.625 258.38 126.924 258.772C127.232 259.164 127.647 259.36 128.17 259.36C128.524 259.36 128.837 259.272 129.108 259.094C129.388 258.908 129.602 258.651 129.752 258.324H133.028C132.888 259.108 132.603 259.794 132.174 260.382C131.754 260.97 131.203 261.428 130.522 261.754C129.85 262.072 129.084 262.23 128.226 262.23C127.227 262.23 126.359 262.02 125.622 261.6C124.884 261.171 124.315 260.574 123.914 259.808C123.522 259.043 123.326 258.17 123.326 257.19ZM137.255 254.726V255.944H140.335V258.282H137.255V259.682H140.755V262.16H134.147V252.248H140.755V254.726H137.255ZM145.804 262.258C144.618 262.258 143.638 261.983 142.864 261.432C142.098 260.872 141.683 260.056 141.618 258.982H144.922C144.968 259.552 145.22 259.836 145.678 259.836C145.846 259.836 145.986 259.799 146.098 259.724C146.219 259.64 146.28 259.514 146.28 259.346C146.28 259.113 146.154 258.926 145.902 258.786C145.65 258.637 145.258 258.469 144.726 258.282C144.091 258.058 143.564 257.839 143.144 257.624C142.733 257.41 142.378 257.097 142.08 256.686C141.781 256.276 141.636 255.748 141.646 255.104C141.646 254.46 141.809 253.914 142.136 253.466C142.472 253.009 142.924 252.664 143.494 252.43C144.072 252.197 144.721 252.08 145.44 252.08C146.653 252.08 147.614 252.36 148.324 252.92C149.042 253.48 149.42 254.269 149.458 255.286H146.112C146.102 255.006 146.032 254.806 145.902 254.684C145.771 254.563 145.612 254.502 145.426 254.502C145.295 254.502 145.188 254.549 145.104 254.642C145.02 254.726 144.978 254.848 144.978 255.006C144.978 255.23 145.099 255.417 145.342 255.566C145.594 255.706 145.99 255.879 146.532 256.084C147.157 256.318 147.67 256.542 148.072 256.756C148.482 256.971 148.837 257.27 149.136 257.652C149.434 258.035 149.584 258.516 149.584 259.094C149.584 259.701 149.434 260.247 149.136 260.732C148.837 261.208 148.403 261.582 147.834 261.852C147.264 262.123 146.588 262.258 145.804 262.258ZM160.839 252.248V254.712H158.207V262.16H155.099V254.712H152.495V252.248H160.839ZM166.512 262.258C165.578 262.258 164.72 262.039 163.936 261.6C163.161 261.162 162.545 260.555 162.088 259.78C161.63 259.006 161.402 258.133 161.402 257.162C161.402 256.192 161.63 255.319 162.088 254.544C162.545 253.77 163.161 253.168 163.936 252.738C164.72 252.3 165.578 252.08 166.512 252.08C167.445 252.08 168.299 252.3 169.074 252.738C169.848 253.168 170.46 253.77 170.908 254.544C171.365 255.319 171.594 256.192 171.594 257.162C171.594 258.133 171.365 259.006 170.908 259.78C170.46 260.555 169.844 261.162 169.06 261.6C168.285 262.039 167.436 262.258 166.512 262.258ZM166.512 259.36C167.128 259.36 167.604 259.164 167.94 258.772C168.276 258.371 168.444 257.834 168.444 257.162C168.444 256.481 168.276 255.944 167.94 255.552C167.604 255.151 167.128 254.95 166.512 254.95C165.886 254.95 165.406 255.151 165.07 255.552C164.734 255.944 164.566 256.481 164.566 257.162C164.566 257.834 164.734 258.371 165.07 258.772C165.406 259.164 165.886 259.36 166.512 259.36ZM96.7392 273.248V283.16H93.6452V278.218L92.1192 283.16H89.4592L87.9332 278.218V283.16H84.8252V273.248H88.6332L90.8172 279.198L92.9452 273.248H96.7392ZM104.498 281.662H101.194L100.704 283.16H97.4417L101.068 273.248H104.652L108.264 283.16H104.988L104.498 281.662ZM103.742 279.324L102.846 276.566L101.95 279.324H103.742ZM114.962 283.16L112.078 278.862V283.16H108.97V273.248H112.078V277.42L114.92 273.248H118.434L115.018 277.994L118.658 283.16H114.962ZM122.646 275.726V276.944H125.726V279.282H122.646V280.682H126.146V283.16H119.538V273.248H126.146V275.726H122.646ZM139.216 273.248L135.66 280.15V283.16H132.552V280.15L128.996 273.248H132.552L134.134 276.762L135.716 273.248H139.216ZM144.753 283.258C143.82 283.258 142.961 283.039 142.177 282.6C141.402 282.162 140.786 281.555 140.329 280.78C139.872 280.006 139.643 279.133 139.643 278.162C139.643 277.192 139.872 276.319 140.329 275.544C140.786 274.77 141.402 274.168 142.177 273.738C142.961 273.3 143.82 273.08 144.753 273.08C145.686 273.08 146.54 273.3 147.315 273.738C148.09 274.168 148.701 274.77 149.149 275.544C149.606 276.319 149.835 277.192 149.835 278.162C149.835 279.133 149.606 280.006 149.149 280.78C148.701 281.555 148.085 282.162 147.301 282.6C146.526 283.039 145.677 283.258 144.753 283.258ZM144.753 280.36C145.369 280.36 145.845 280.164 146.181 279.772C146.517 279.371 146.685 278.834 146.685 278.162C146.685 277.481 146.517 276.944 146.181 276.552C145.845 276.151 145.369 275.95 144.753 275.95C144.128 275.95 143.647 276.151 143.311 276.552C142.975 276.944 142.807 277.481 142.807 278.162C142.807 278.834 142.975 279.371 143.311 279.772C143.647 280.164 144.128 280.36 144.753 280.36ZM153.994 273.248V278.834C153.994 279.292 154.092 279.656 154.288 279.926C154.493 280.188 154.82 280.318 155.268 280.318C155.716 280.318 156.047 280.188 156.262 279.926C156.477 279.656 156.584 279.292 156.584 278.834V273.248H159.678V278.834C159.678 279.777 159.482 280.584 159.09 281.256C158.698 281.919 158.161 282.418 157.48 282.754C156.799 283.09 156.038 283.258 155.198 283.258C154.358 283.258 153.611 283.09 152.958 282.754C152.314 282.418 151.81 281.919 151.446 281.256C151.082 280.594 150.9 279.786 150.9 278.834V273.248H153.994ZM166.003 283.16L164.141 279.604H164.127V283.16H161.019V273.248H165.639C166.441 273.248 167.127 273.393 167.697 273.682C168.266 273.962 168.691 274.35 168.971 274.844C169.26 275.33 169.405 275.88 169.405 276.496C169.405 277.159 169.218 277.747 168.845 278.26C168.481 278.774 167.953 279.142 167.263 279.366L169.419 283.16H166.003ZM164.127 277.532H165.359C165.657 277.532 165.881 277.467 166.031 277.336C166.18 277.196 166.255 276.982 166.255 276.692C166.255 276.431 166.175 276.226 166.017 276.076C165.867 275.927 165.648 275.852 165.359 275.852H164.127V277.532ZM95.7741 301.808H98.7701V304.16H92.6661V294.248H95.7741V301.808ZM102.856 294.248V304.16H99.7481V294.248H102.856ZM111.26 294.248V296.712H107.368V298.084H110.168V300.422H107.368V304.16H104.26V294.248H111.26ZM115.421 296.726V297.944H118.501V300.282H115.421V301.682H118.921V304.16H112.313V294.248H118.921V296.726H115.421ZM123.97 304.258C122.785 304.258 121.805 303.983 121.03 303.432C120.265 302.872 119.849 302.056 119.784 300.982H123.088C123.135 301.552 123.387 301.836 123.844 301.836C124.012 301.836 124.152 301.799 124.264 301.724C124.385 301.64 124.446 301.514 124.446 301.346C124.446 301.113 124.32 300.926 124.068 300.786C123.816 300.637 123.424 300.469 122.892 300.282C122.257 300.058 121.73 299.839 121.31 299.624C120.899 299.41 120.545 299.097 120.246 298.686C119.947 298.276 119.803 297.748 119.812 297.104C119.812 296.46 119.975 295.914 120.302 295.466C120.638 295.009 121.091 294.664 121.66 294.43C122.239 294.197 122.887 294.08 123.606 294.08C124.819 294.08 125.781 294.36 126.49 294.92C127.209 295.48 127.587 296.269 127.624 297.286H124.278C124.269 297.006 124.199 296.806 124.068 296.684C123.937 296.563 123.779 296.502 123.592 296.502C123.461 296.502 123.354 296.549 123.27 296.642C123.186 296.726 123.144 296.848 123.144 297.006C123.144 297.23 123.265 297.417 123.508 297.566C123.76 297.706 124.157 297.879 124.698 298.084C125.323 298.318 125.837 298.542 126.238 298.756C126.649 298.971 127.003 299.27 127.302 299.652C127.601 300.035 127.75 300.516 127.75 301.094C127.75 301.701 127.601 302.247 127.302 302.732C127.003 303.208 126.569 303.582 126 303.852C125.431 304.123 124.754 304.258 123.97 304.258ZM136.626 294.248V296.712H133.994V304.16H130.886V296.712H128.282V294.248H136.626ZM146.989 294.248L143.433 301.15V304.16H140.325V301.15L136.769 294.248H140.325L141.907 297.762L143.489 294.248H146.989ZM150.803 301.808H153.799V304.16H147.695V294.248H150.803V301.808ZM157.885 296.726V297.944H160.965V300.282H157.885V301.682H161.385V304.16H154.777V294.248H161.385V296.726H157.885ZM73.1036 325.258C71.9183 325.258 70.9383 324.983 70.1636 324.432C69.3983 323.872 68.983 323.056 68.9176 321.982H72.2216C72.2683 322.552 72.5203 322.836 72.9776 322.836C73.1456 322.836 73.2856 322.799 73.3976 322.724C73.519 322.64 73.5796 322.514 73.5796 322.346C73.5796 322.113 73.4536 321.926 73.2016 321.786C72.9496 321.637 72.5576 321.469 72.0256 321.282C71.391 321.058 70.8636 320.839 70.4436 320.624C70.033 320.41 69.6783 320.097 69.3796 319.686C69.081 319.276 68.9363 318.748 68.9456 318.104C68.9456 317.46 69.109 316.914 69.4356 316.466C69.7716 316.009 70.2243 315.664 70.7936 315.43C71.3723 315.197 72.021 315.08 72.7396 315.08C73.953 315.08 74.9143 315.36 75.6236 315.92C76.3423 316.48 76.7203 317.269 76.7576 318.286H73.4116C73.4023 318.006 73.3323 317.806 73.2016 317.684C73.071 317.563 72.9123 317.502 72.7256 317.502C72.595 317.502 72.4876 317.549 72.4036 317.642C72.3196 317.726 72.2776 317.848 72.2776 318.006C72.2776 318.23 72.399 318.417 72.6416 318.566C72.8936 318.706 73.2903 318.879 73.8316 319.084C74.457 319.318 74.9703 319.542 75.3716 319.756C75.7823 319.971 76.137 320.27 76.4356 320.652C76.7343 321.035 76.8836 321.516 76.8836 322.094C76.8836 322.701 76.7343 323.247 76.4356 323.732C76.137 324.208 75.703 324.582 75.1336 324.852C74.5643 325.123 73.8876 325.258 73.1036 325.258ZM81.0836 317.726V318.944H84.1636V321.282H81.0836V322.682H84.5836V325.16H77.9756V315.248H84.5836V317.726H81.0836ZM85.4749 320.19C85.4749 319.21 85.6709 318.338 86.0629 317.572C86.4643 316.807 87.0336 316.214 87.7709 315.794C88.5083 315.365 89.3763 315.15 90.3749 315.15C91.2336 315.15 91.9989 315.314 92.6709 315.64C93.3523 315.958 93.9029 316.41 94.3229 316.998C94.7523 317.586 95.0369 318.272 95.1769 319.056H91.9009C91.7516 318.73 91.5369 318.478 91.2569 318.3C90.9863 318.114 90.6736 318.02 90.3189 318.02C89.7963 318.02 89.3809 318.216 89.0729 318.608C88.7743 319 88.6249 319.528 88.6249 320.19C88.6249 320.853 88.7743 321.38 89.0729 321.772C89.3809 322.164 89.7963 322.36 90.3189 322.36C90.6736 322.36 90.9863 322.272 91.2569 322.094C91.5369 321.908 91.7516 321.651 91.9009 321.324H95.1769C95.0369 322.108 94.7523 322.794 94.3229 323.382C93.9029 323.97 93.3523 324.428 92.6709 324.754C91.9989 325.072 91.2336 325.23 90.3749 325.23C89.3763 325.23 88.5083 325.02 87.7709 324.6C87.0336 324.171 86.4643 323.574 86.0629 322.808C85.6709 322.043 85.4749 321.17 85.4749 320.19ZM99.3339 315.248V320.834C99.3339 321.292 99.4319 321.656 99.6279 321.926C99.8333 322.188 100.16 322.318 100.608 322.318C101.056 322.318 101.387 322.188 101.602 321.926C101.817 321.656 101.924 321.292 101.924 320.834V315.248H105.018V320.834C105.018 321.777 104.822 322.584 104.43 323.256C104.038 323.919 103.501 324.418 102.82 324.754C102.139 325.09 101.378 325.258 100.538 325.258C99.6979 325.258 98.9513 325.09 98.2979 324.754C97.6539 324.418 97.1499 323.919 96.7859 323.256C96.4219 322.594 96.2399 321.786 96.2399 320.834V315.248H99.3339ZM111.342 325.16L109.48 321.604H109.466V325.16H106.358V315.248H110.978C111.781 315.248 112.467 315.393 113.036 315.682C113.606 315.962 114.03 316.35 114.31 316.844C114.6 317.33 114.744 317.88 114.744 318.496C114.744 319.159 114.558 319.747 114.184 320.26C113.82 320.774 113.293 321.142 112.602 321.366L114.758 325.16H111.342ZM109.466 319.532H110.698C110.997 319.532 111.221 319.467 111.37 319.336C111.52 319.196 111.594 318.982 111.594 318.692C111.594 318.431 111.515 318.226 111.356 318.076C111.207 317.927 110.988 317.852 110.698 317.852H109.466V319.532ZM118.845 317.726V318.944H121.925V321.282H118.845V322.682H122.345V325.16H115.737V315.248H122.345V317.726H118.845ZM126.849 322.682L125.407 326.84H123.447L124.105 322.682H126.849ZM134.559 325.258C133.373 325.258 132.393 324.983 131.619 324.432C130.853 323.872 130.438 323.056 130.373 321.982H133.677C133.723 322.552 133.975 322.836 134.433 322.836C134.601 322.836 134.741 322.799 134.853 322.724C134.974 322.64 135.035 322.514 135.035 322.346C135.035 322.113 134.909 321.926 134.657 321.786C134.405 321.637 134.013 321.469 133.481 321.282C132.846 321.058 132.319 320.839 131.899 320.624C131.488 320.41 131.133 320.097 130.835 319.686C130.536 319.276 130.391 318.748 130.401 318.104C130.401 317.46 130.564 316.914 130.891 316.466C131.227 316.009 131.679 315.664 132.249 315.43C132.827 315.197 133.476 315.08 134.195 315.08C135.408 315.08 136.369 315.36 137.079 315.92C137.797 316.48 138.175 317.269 138.213 318.286H134.867C134.857 318.006 134.787 317.806 134.657 317.684C134.526 317.563 134.367 317.502 134.181 317.502C134.05 317.502 133.943 317.549 133.859 317.642C133.775 317.726 133.733 317.848 133.733 318.006C133.733 318.23 133.854 318.417 134.097 318.566C134.349 318.706 134.745 318.879 135.287 319.084C135.912 319.318 136.425 319.542 136.827 319.756C137.237 319.971 137.592 320.27 137.891 320.652C138.189 321.035 138.339 321.516 138.339 322.094C138.339 322.701 138.189 323.247 137.891 323.732C137.592 324.208 137.158 324.582 136.589 324.852C136.019 325.123 135.343 325.258 134.559 325.258ZM142.539 315.248V325.16H139.431V315.248H142.539ZM155.856 315.248V325.16H152.762V320.218L151.236 325.16H148.576L147.05 320.218V325.16H143.942V315.248H147.75L149.934 321.198L152.062 315.248H155.856ZM165.365 318.65C165.365 319.276 165.22 319.845 164.931 320.358C164.642 320.862 164.212 321.264 163.643 321.562C163.083 321.861 162.402 322.01 161.599 322.01H160.367V325.16H157.259V315.248H161.599C162.812 315.248 163.741 315.556 164.385 316.172C165.038 316.788 165.365 317.614 165.365 318.65ZM161.249 319.56C161.893 319.56 162.215 319.257 162.215 318.65C162.215 318.044 161.893 317.74 161.249 317.74H160.367V319.56H161.249ZM169.459 322.808H172.455V325.16H166.351V315.248H169.459V322.808ZM176.541 317.726V318.944H179.621V321.282H176.541V322.682H180.041V325.16H173.433V315.248H180.041V317.726H176.541ZM184.544 322.682L183.102 326.84H181.142L181.8 322.682H184.544ZM95.3922 344.662H92.0882L91.5982 346.16H88.3362L91.9622 336.248H95.5462L99.1582 346.16H95.8822L95.3922 344.662ZM94.6362 342.324L93.7402 339.566L92.8442 342.324H94.6362ZM109.37 346.16H106.262L102.972 341.176V346.16H99.8643V336.248H102.972L106.262 341.316V336.248H109.37V346.16ZM114.904 336.248C115.94 336.248 116.846 336.458 117.62 336.878C118.404 337.298 119.006 337.882 119.426 338.628C119.846 339.375 120.056 340.224 120.056 341.176C120.056 342.119 119.846 342.968 119.426 343.724C119.006 344.48 118.404 345.078 117.62 345.516C116.846 345.946 115.94 346.16 114.904 346.16H110.774V336.248H114.904ZM114.624 343.388C115.324 343.388 115.88 343.197 116.29 342.814C116.701 342.432 116.906 341.886 116.906 341.176C116.906 340.467 116.701 339.921 116.29 339.538C115.88 339.156 115.324 338.964 114.624 338.964H113.882V343.388H114.624ZM130.558 336.248V338.712H126.666V340.084H129.466V342.422H126.666V346.16H123.558V336.248H130.558ZM137.966 344.662H134.662L134.172 346.16H130.91L134.536 336.248H138.12L141.732 346.16H138.456L137.966 344.662ZM137.21 342.324L136.314 339.566L135.418 342.324H137.21ZM146.317 346.258C145.131 346.258 144.151 345.983 143.377 345.432C142.611 344.872 142.196 344.056 142.131 342.982H145.435C145.481 343.552 145.733 343.836 146.191 343.836C146.359 343.836 146.499 343.799 146.611 343.724C146.732 343.64 146.793 343.514 146.793 343.346C146.793 343.113 146.667 342.926 146.415 342.786C146.163 342.637 145.771 342.469 145.239 342.282C144.604 342.058 144.077 341.839 143.657 341.624C143.246 341.41 142.891 341.097 142.593 340.686C142.294 340.276 142.149 339.748 142.159 339.104C142.159 338.46 142.322 337.914 142.649 337.466C142.985 337.009 143.437 336.664 144.007 336.43C144.585 336.197 145.234 336.08 145.953 336.08C147.166 336.08 148.127 336.36 148.837 336.92C149.555 337.48 149.933 338.269 149.971 339.286H146.625C146.615 339.006 146.545 338.806 146.415 338.684C146.284 338.563 146.125 338.502 145.939 338.502C145.808 338.502 145.701 338.549 145.617 338.642C145.533 338.726 145.491 338.848 145.491 339.006C145.491 339.23 145.612 339.417 145.855 339.566C146.107 339.706 146.503 339.879 147.045 340.084C147.67 340.318 148.183 340.542 148.585 340.756C148.995 340.971 149.35 341.27 149.649 341.652C149.947 342.035 150.097 342.516 150.097 343.094C150.097 343.701 149.947 344.247 149.649 344.732C149.35 345.208 148.916 345.582 148.347 345.852C147.777 346.123 147.101 346.258 146.317 346.258ZM158.973 336.248V338.712H156.341V346.16H153.233V338.712H150.629V336.248H158.973ZM164.001 335.59L163.637 342.226H160.977L160.613 335.59H164.001ZM162.307 346.272C161.766 346.272 161.332 346.128 161.005 345.838C160.679 345.549 160.515 345.185 160.515 344.746C160.515 344.298 160.679 343.93 161.005 343.64C161.332 343.342 161.766 343.192 162.307 343.192C162.839 343.192 163.269 343.342 163.595 343.64C163.922 343.93 164.085 344.298 164.085 344.746C164.085 345.185 163.922 345.549 163.595 345.838C163.269 346.128 162.839 346.272 162.307 346.272Z" fill="#006B4F"/>
<g clip-path="url(#clip0_3784_1367)">
<path d="M98.6484 139.531L104.249 112.902H123.252L121.995 118.716H110.835L109.92 123.243H119.25L118.074 128.934H108.703L107.708 133.727H118.868L117.652 139.531H98.6484Z" fill="#EE2D43"/>
<path d="M121.273 139.531L126.864 112.902H139.321C141.202 112.902 142.67 113.106 143.725 113.505C144.781 113.903 145.525 114.496 145.957 115.283C146.39 116.07 146.601 117.061 146.601 118.246C146.601 118.818 146.551 119.442 146.45 120.147C146.349 120.842 146.219 121.588 146.068 122.395C145.766 123.682 145.424 124.868 145.062 125.951C144.69 127.034 144.178 127.964 143.524 128.74C142.861 129.517 141.966 130.11 140.819 130.518C139.673 130.927 138.175 131.142 136.325 131.142H130.916L129.126 139.541H121.273V139.531ZM132.082 125.45H134.445C135.159 125.45 135.722 125.409 136.154 125.338C136.587 125.256 136.928 125.103 137.18 124.857C137.431 124.612 137.632 124.275 137.793 123.836C137.944 123.396 138.095 122.793 138.246 122.017C138.326 121.577 138.396 121.189 138.457 120.852C138.517 120.515 138.547 120.229 138.547 120.004C138.547 119.615 138.457 119.329 138.276 119.135C138.095 118.941 137.823 118.808 137.461 118.726C137.089 118.645 136.566 118.614 135.883 118.614H133.52L132.082 125.45Z" fill="#EE2D43"/>
<path d="M157.091 139.847C155.995 139.847 154.829 139.817 153.592 139.766C152.346 139.715 151.159 139.633 150.013 139.51C148.867 139.398 147.881 139.285 147.047 139.183L148.153 133.614C149.068 133.696 149.983 133.768 150.918 133.849C151.843 133.931 152.718 133.982 153.542 134.003C154.367 134.033 155.07 134.043 155.654 134.043C156.388 134.043 157.001 134.033 157.504 134.003C157.996 133.982 158.409 133.931 158.72 133.87C159.042 133.808 159.293 133.727 159.504 133.614C159.655 133.563 159.786 133.451 159.887 133.287C159.987 133.124 160.088 132.94 160.168 132.746C160.259 132.552 160.329 132.347 160.399 132.122C160.46 131.908 160.51 131.673 160.53 131.428C160.56 131.182 160.57 130.968 160.57 130.784C160.57 130.498 160.51 130.283 160.399 130.14C160.289 129.997 160.007 129.874 159.565 129.772C159.122 129.67 158.429 129.537 157.494 129.384L152.698 128.607C151.531 128.423 150.717 127.974 150.264 127.248C149.812 126.523 149.581 125.562 149.581 124.346C149.581 123.754 149.621 123.11 149.711 122.415C149.802 121.72 149.933 121.005 150.114 120.29C150.465 118.614 150.978 117.275 151.652 116.264C152.326 115.262 153.15 114.486 154.125 113.944C155.101 113.403 156.237 113.045 157.534 112.861C158.811 112.687 160.259 112.595 161.857 112.595C162.953 112.595 164.059 112.626 165.185 112.687C166.311 112.749 167.367 112.841 168.342 112.963C169.318 113.076 170.142 113.219 170.796 113.372L169.619 118.869C168.986 118.788 168.232 118.716 167.357 118.634C166.482 118.553 165.587 118.502 164.672 118.461C163.758 118.42 162.893 118.399 162.078 118.399C161.495 118.399 161.003 118.42 160.59 118.461C160.188 118.502 159.836 118.553 159.565 118.614C159.283 118.675 159.042 118.777 158.841 118.9C158.66 119.033 158.499 119.186 158.368 119.36C158.228 119.544 158.117 119.748 158.047 119.983C157.966 120.218 157.916 120.453 157.876 120.698C157.835 120.944 157.815 121.199 157.815 121.455C157.815 121.812 157.956 122.058 158.258 122.19C158.549 122.323 159.102 122.446 159.917 122.579L164.3 123.273C165.085 123.406 165.829 123.6 166.512 123.856C167.196 124.111 167.759 124.561 168.192 125.215C168.624 125.859 168.835 126.819 168.835 128.076C168.835 128.383 168.825 128.72 168.795 129.077C168.765 129.435 168.724 129.834 168.664 130.263C168.604 130.692 168.513 131.131 168.413 131.601C168.011 133.481 167.478 134.973 166.814 136.077C166.15 137.17 165.356 137.998 164.431 138.539C163.506 139.081 162.44 139.439 161.234 139.602C160.017 139.766 158.64 139.847 157.091 139.847Z" fill="#EE2D43"/>
<path d="M83.0156 145.008V141.891H85.0064V142.228H83.3977V143.26H84.7953V143.598H83.3977V144.67H85.0064V145.008H83.0156Z" fill="black"/>
<path d="M87.1016 145.008L88.2578 141.891H88.7405L89.8967 145.008H89.5046L89.1929 144.16H87.8054L87.4937 145.008H87.1016ZM87.926 143.812H89.0723L88.5092 142.29H88.4891L87.926 143.812Z" fill="black"/>
<path d="M93.1429 145.038C93.0323 145.038 92.9116 145.038 92.7809 145.028C92.6502 145.018 92.5195 145.018 92.3989 145.008C92.2782 144.997 92.1676 144.987 92.0671 144.977V144.65C92.1777 144.66 92.2883 144.67 92.3989 144.681C92.5195 144.691 92.6301 144.701 92.7407 144.701C92.8513 144.711 92.9418 144.711 93.0222 144.711C93.1831 144.711 93.3038 144.701 93.4043 144.691C93.4948 144.681 93.5752 144.65 93.6456 144.609C93.6858 144.578 93.7261 144.548 93.7462 144.497C93.7663 144.456 93.7763 144.394 93.7864 144.333C93.7864 144.272 93.7964 144.211 93.7964 144.139C93.7964 144.037 93.7964 143.955 93.7864 143.894C93.7763 143.832 93.7663 143.781 93.7361 143.751C93.7059 143.72 93.6657 143.689 93.6155 143.669C93.5551 143.649 93.4847 143.638 93.3842 143.628L92.6201 143.546C92.4793 143.526 92.3586 143.495 92.2782 143.454C92.1877 143.413 92.1274 143.352 92.0872 143.291C92.0469 143.219 92.0168 143.138 91.9967 143.046C91.9866 142.954 91.9766 142.841 91.9766 142.729C91.9766 142.535 91.9967 142.381 92.0469 142.269C92.0972 142.157 92.1676 142.065 92.2581 142.003C92.3486 141.942 92.4692 141.901 92.5999 141.881C92.7307 141.86 92.8915 141.85 93.0625 141.85C93.1731 141.85 93.2937 141.85 93.4144 141.86C93.535 141.871 93.6456 141.871 93.7462 141.881C93.8467 141.891 93.9372 141.901 94.0076 141.922V142.238C93.9271 142.228 93.8367 142.218 93.7361 142.208C93.6356 142.198 93.535 142.187 93.4244 142.187C93.3138 142.187 93.2233 142.177 93.1228 142.177C92.9619 142.177 92.8312 142.187 92.7307 142.198C92.6301 142.208 92.5497 142.238 92.4893 142.279C92.419 142.32 92.3787 142.371 92.3687 142.443C92.3486 142.514 92.3486 142.596 92.3486 142.698C92.3486 142.821 92.3586 142.903 92.3687 142.974C92.3888 143.035 92.419 143.087 92.4793 143.107C92.5296 143.138 92.6201 143.148 92.7307 143.168L93.4747 143.25C93.5853 143.26 93.6758 143.27 93.7562 143.291C93.8367 143.311 93.907 143.342 93.9674 143.393C94.0277 143.434 94.0679 143.505 94.0981 143.587C94.1182 143.628 94.1282 143.679 94.1383 143.73C94.1483 143.781 94.1584 143.843 94.1584 143.904C94.1584 143.965 94.1685 144.037 94.1685 144.108C94.1685 144.282 94.1483 144.425 94.1182 144.537C94.088 144.65 94.0377 144.742 93.9774 144.803C93.9171 144.864 93.8467 144.916 93.7562 144.956C93.6657 144.987 93.5752 145.008 93.4646 145.018C93.3741 145.038 93.2635 145.038 93.1429 145.038Z" fill="black"/>
<path d="M97.3504 145.008V143.812L96.2344 141.891H96.6466L97.5314 143.424H97.5716L98.4464 141.891H98.8486L97.7325 143.812V145.008H97.3504Z" fill="black"/>
<path d="M104.273 145.008V141.891H105.611C105.812 141.891 105.963 141.912 106.083 141.963C106.204 142.014 106.284 142.085 106.345 142.167C106.405 142.259 106.445 142.361 106.465 142.474C106.485 142.596 106.495 142.719 106.495 142.862C106.495 142.995 106.485 143.128 106.465 143.24C106.445 143.363 106.405 143.465 106.345 143.557C106.284 143.649 106.194 143.72 106.073 143.771C105.953 143.822 105.792 143.853 105.601 143.853H104.656V144.997H104.273V145.008ZM104.656 143.516H105.48C105.621 143.516 105.741 143.506 105.822 143.475C105.902 143.454 105.973 143.414 106.013 143.363C106.053 143.311 106.083 143.24 106.093 143.158C106.103 143.076 106.113 142.974 106.113 142.862C106.113 142.749 106.103 142.647 106.093 142.566C106.083 142.484 106.053 142.422 106.013 142.361C105.973 142.31 105.912 142.269 105.822 142.249C105.741 142.218 105.621 142.208 105.48 142.208H104.645V143.516H104.656Z" fill="black"/>
<path d="M108.352 145.008L109.508 141.891H109.99L111.147 145.008H110.755L110.443 144.16H109.055L108.744 145.008H108.352ZM109.166 143.812H110.312L109.749 142.29H109.729L109.166 143.812Z" fill="black"/>
<path d="M113.843 145.008V143.812L112.727 141.891H113.139L114.024 143.424H114.054L114.939 141.891H115.341L114.225 143.812V145.008H113.843Z" fill="black"/>
<path d="M117.555 145.008V141.891H118.078L119.123 144.374H119.143L120.189 141.891H120.702V145.008H120.33V142.514H120.31L119.264 145.008H118.982L117.937 142.514H117.917V145.008H117.555Z" fill="black"/>
<path d="M123.305 145.008V141.891H125.306V142.228H123.697V143.26H125.094V143.598H123.697V144.67H125.306V145.008H123.305Z" fill="black"/>
<path d="M127.719 145.008V141.891H128.111L129.7 144.282H129.72V141.891H130.082V145.008H129.72L128.101 142.576H128.081V145.008H127.719Z" fill="black"/>
<path d="M133.34 145.008V142.239H132.375V141.891H134.698V142.239H133.732V145.008H133.34Z" fill="black"/>
<path d="M140.549 145.038C140.439 145.038 140.318 145.038 140.187 145.028C140.056 145.018 139.926 145.018 139.805 145.008C139.684 144.997 139.574 144.987 139.473 144.977V144.65C139.584 144.66 139.695 144.67 139.805 144.681C139.926 144.691 140.036 144.701 140.147 144.701C140.258 144.711 140.348 144.711 140.428 144.711C140.589 144.711 140.71 144.701 140.811 144.691C140.901 144.681 140.981 144.65 141.052 144.609C141.092 144.578 141.132 144.548 141.152 144.497C141.173 144.456 141.183 144.394 141.193 144.333C141.193 144.272 141.203 144.211 141.203 144.139C141.203 144.037 141.203 143.955 141.193 143.894C141.183 143.832 141.173 143.781 141.142 143.751C141.112 143.72 141.072 143.689 141.022 143.669C140.961 143.649 140.891 143.638 140.79 143.628L140.026 143.546C139.886 143.526 139.765 143.495 139.684 143.454C139.594 143.413 139.534 143.352 139.493 143.291C139.453 143.219 139.423 143.138 139.403 143.046C139.393 142.954 139.383 142.841 139.383 142.729C139.383 142.535 139.403 142.381 139.453 142.269C139.503 142.157 139.574 142.065 139.664 142.003C139.755 141.942 139.875 141.901 140.006 141.881C140.137 141.86 140.298 141.85 140.469 141.85C140.579 141.85 140.7 141.85 140.821 141.86C140.941 141.871 141.052 141.871 141.152 141.881C141.253 141.891 141.343 141.901 141.414 141.922V142.238C141.333 142.228 141.243 142.218 141.142 142.208C141.042 142.198 140.941 142.187 140.831 142.187C140.72 142.187 140.63 142.177 140.529 142.177C140.368 142.177 140.237 142.187 140.137 142.198C140.036 142.208 139.956 142.238 139.896 142.279C139.825 142.32 139.785 142.371 139.775 142.443C139.755 142.514 139.755 142.596 139.755 142.698C139.755 142.821 139.765 142.903 139.775 142.974C139.795 143.035 139.825 143.087 139.886 143.107C139.936 143.138 140.026 143.148 140.137 143.168L140.881 143.25C140.992 143.26 141.082 143.27 141.162 143.291C141.243 143.311 141.313 143.342 141.374 143.393C141.434 143.434 141.474 143.505 141.504 143.587C141.524 143.628 141.534 143.679 141.545 143.73C141.555 143.781 141.565 143.843 141.565 143.904C141.565 143.965 141.575 144.037 141.575 144.108C141.575 144.282 141.555 144.425 141.524 144.537C141.494 144.65 141.444 144.742 141.384 144.803C141.323 144.864 141.253 144.916 141.162 144.956C141.072 144.987 140.981 145.008 140.871 145.018C140.79 145.038 140.68 145.038 140.549 145.038Z" fill="black"/>
<path d="M144.762 145.008V143.812L143.656 141.891H144.068L144.953 143.424H144.983L145.868 141.891H146.26L145.154 143.812V145.008H144.762Z" fill="black"/>
<path d="M149.44 145.038C149.329 145.038 149.209 145.038 149.078 145.028C148.947 145.018 148.816 145.018 148.696 145.008C148.575 144.997 148.464 144.987 148.364 144.977V144.65C148.475 144.66 148.585 144.67 148.696 144.681C148.816 144.691 148.927 144.701 149.038 144.701C149.148 144.711 149.239 144.711 149.319 144.711C149.48 144.711 149.601 144.701 149.701 144.691C149.792 144.681 149.872 144.65 149.942 144.609C149.983 144.578 150.023 144.548 150.043 144.497C150.063 144.456 150.073 144.394 150.083 144.333C150.083 144.272 150.093 144.211 150.093 144.139C150.093 144.037 150.093 143.955 150.083 143.894C150.073 143.832 150.063 143.781 150.033 143.751C150.003 143.72 149.963 143.689 149.912 143.669C149.852 143.649 149.782 143.638 149.681 143.628L148.917 143.546C148.776 143.526 148.656 143.495 148.575 143.454C148.485 143.413 148.424 143.352 148.384 143.291C148.344 143.219 148.314 143.138 148.294 143.046C148.283 142.954 148.273 142.841 148.273 142.729C148.273 142.535 148.294 142.381 148.344 142.269C148.394 142.157 148.464 142.065 148.555 142.003C148.645 141.942 148.766 141.901 148.897 141.881C149.028 141.86 149.188 141.85 149.359 141.85C149.47 141.85 149.591 141.85 149.711 141.86C149.832 141.871 149.942 141.871 150.043 141.881C150.144 141.891 150.234 141.901 150.304 141.922V142.238C150.224 142.228 150.134 142.218 150.033 142.208C149.932 142.198 149.832 142.187 149.721 142.187C149.621 142.187 149.52 142.177 149.42 142.177C149.259 142.177 149.128 142.187 149.028 142.198C148.927 142.208 148.847 142.238 148.786 142.279C148.716 142.32 148.676 142.371 148.666 142.443C148.645 142.514 148.645 142.596 148.645 142.698C148.645 142.821 148.656 142.903 148.666 142.974C148.686 143.035 148.716 143.087 148.776 143.107C148.826 143.138 148.917 143.148 149.028 143.168L149.772 143.25C149.882 143.26 149.973 143.27 150.053 143.291C150.134 143.311 150.204 143.342 150.264 143.393C150.325 143.434 150.365 143.505 150.395 143.587C150.415 143.628 150.425 143.679 150.435 143.73C150.445 143.781 150.455 143.843 150.455 143.904C150.455 143.965 150.465 144.037 150.465 144.108C150.465 144.282 150.445 144.425 150.415 144.537C150.385 144.65 150.335 144.742 150.274 144.803C150.214 144.864 150.144 144.916 150.053 144.956C149.963 144.987 149.872 145.008 149.762 145.018C149.671 145.038 149.56 145.038 149.44 145.038Z" fill="black"/>
<path d="M153.575 145.008V142.239H152.609V141.891H154.932V142.239H153.967V145.008H153.575Z" fill="black"/>
<path d="M157.242 145.008V141.891H159.233V142.228H157.624V143.26H159.022V143.598H157.624V144.67H159.233V145.008H157.242Z" fill="black"/>
<path d="M161.641 145.008V141.891H162.153L163.199 144.374H163.219L164.265 141.891H164.788V145.008H164.406V142.514H164.396L163.34 145.008H163.058L162.013 142.514H162.003V145.008H161.641Z" fill="black"/>
<path d="M98.3252 120.218H87.9288C87.3959 120.218 86.9937 119.738 87.1043 119.237L88.4014 113.536C88.4818 113.168 88.8237 112.902 89.2258 112.902H99.6223C100.155 112.902 100.557 113.382 100.447 113.883L99.1497 119.585C99.0693 119.953 98.7173 120.218 98.3252 120.218Z" fill="#006B4F"/>
<path d="M96.3096 129.874H85.9132C85.3803 129.874 84.9781 129.394 85.0887 128.893L86.3858 123.192C86.4662 122.824 86.808 122.558 87.2102 122.558H97.5966C98.1295 122.558 98.5316 123.038 98.421 123.539L97.124 129.241C97.0436 129.609 96.7017 129.874 96.3096 129.874Z" fill="#EE2D43"/>
<path d="M94.2549 139.694H83.8585C83.3256 139.694 82.9234 139.214 83.034 138.713L84.3311 133.011C84.4115 132.643 84.7534 132.378 85.1555 132.378H95.5519C96.0848 132.378 96.487 132.858 96.3764 133.359L95.0794 139.06C94.9889 139.438 94.647 139.694 94.2549 139.694Z" fill="#006B4F"/>
</g>
<defs>
<clipPath id="clip0_3784_1367">
<rect width="87.7863" height="32.4427" fill="white" transform="translate(83.0156 112.595)"/>
</clipPath>
</defs>
</svg>
