<svg width="540" height="343" viewBox="0 0 540 343" fill="none" xmlns="http://www.w3.org/2000/svg">
<g clip-path="url(#clip0_3399_36591)">
<path d="M457.855 266.079L493.509 343H497.518L466.742 261.096L457.855 266.079Z" fill="#DCA86E"/>
<path d="M421.012 267.703L385.467 342.999H381.457L412.234 266.078L421.012 267.703Z" fill="#DCA86E"/>
<path d="M330.524 326.532L312.427 342.35L291.078 327.29C291.078 327.29 298.339 324.907 310.801 328.157L323.589 317.432L330.524 326.532Z" fill="url(#paint0_linear_3399_36591)"/>
<path d="M435.317 239.211C435.317 239.211 395.329 259.687 381.133 265.862C367.045 272.038 318.93 320.14 318.93 320.14C318.93 320.14 325.107 332.707 328.141 330.432C355.341 311.039 380.266 293.705 396.413 287.638C428.273 275.613 437.16 273.013 445.287 263.587C445.287 263.587 440.519 252.212 435.317 239.211Z" fill="#004E3A"/>
<path d="M373.006 318.516L367.804 342.025L341.688 342.567C341.688 342.567 346.131 336.283 358.051 331.625L361.952 315.482L373.006 318.516Z" fill="url(#paint1_linear_3399_36591)"/>
<path d="M436.294 234.012C436.294 234.012 399.123 238.02 385.469 245.279C371.923 252.538 361.086 319.599 361.086 319.599C361.086 319.599 371.598 325.341 372.898 321.766C383.41 293.165 395.114 270.63 395.114 270.63C408.443 268.138 439.436 283.306 461.869 261.205C461.869 261.313 442.579 246.471 436.294 234.012Z" fill="#006B4F"/>
<path d="M500.447 188.834C500.447 188.834 497.737 193.276 496.112 198.801L480.832 197.393C480.832 197.393 488.743 185.475 488.093 178.217L500.447 188.834Z" fill="#FEC4AD"/>
<path d="M497.086 164.024C496.219 163.808 492.968 162.941 492.318 163.157C491.451 163.483 492.426 164.783 491.776 165.433C490.692 166.624 488.633 166.624 487.333 167.383C485.707 168.249 484.407 169.441 483.757 170.741C482.565 172.908 487.008 177.783 487.766 181.467C489.283 189.159 498.928 190.242 506.839 187.967C509.657 187.1 512.258 184.609 513.775 182.117C515.617 179.192 514.533 174.425 513.016 171.5C512.149 169.766 510.307 168.249 508.79 167.166C507.381 166.191 506.947 162.074 505.322 161.857C505.214 161.966 499.037 164.566 497.086 164.024Z" fill="#FEC4AD"/>
<path d="M519.087 184.608C519.087 184.608 518.87 183.308 521.038 181.25C528.407 174.316 520.496 160.774 512.476 158.499C508.358 157.307 505.758 158.607 504.349 154.49C504.457 154.815 502.723 155.574 502.507 155.682C501.531 156.44 501.098 157.09 501.098 158.39C500.989 164.349 506.299 169.766 510.201 173.558C512.043 175.183 507.6 174.1 505.758 174.425C504.566 174.641 501.531 177.783 500.881 178.325C502.507 180.383 504.024 178.541 506.3 179.516C508.359 180.491 507.058 183.092 505.107 183.417C502.073 183.85 500.881 181.9 500.881 181.9C499.472 182.658 499.256 187.1 498.172 188.292C499.689 189.159 508.467 190.675 510.526 190.675C514.969 190.567 517.678 188.184 519.087 184.608Z" fill="url(#paint2_linear_3399_36591)"/>
<path d="M499.904 191.218C503.155 226.97 461.867 261.313 461.867 261.313C461.867 261.313 434.991 262.288 436.292 234.012C436.292 234.012 438.351 228.92 455.04 213.752C466.201 203.677 474.004 188.618 481.807 188.943C503.264 189.701 499.904 191.218 499.904 191.218Z" fill="#EE2D43"/>
<path d="M399.988 263.262C399.988 263.262 424.805 272.47 457.857 260.012C490.909 247.444 500.012 188.941 500.012 188.941L503.805 190.892C503.805 190.892 500.121 255.57 456.557 269.545C423.287 280.271 399.988 267.487 399.988 267.487V263.262Z" fill="url(#paint3_linear_3399_36591)"/>
<path d="M495.895 226.861C495.895 226.861 499.904 240.62 500.121 247.446C500.338 254.271 497.412 277.564 497.412 277.564L503.697 278.322C503.697 278.322 509.332 250.587 509.441 241.595C509.549 232.603 504.347 217.869 504.347 217.869L495.895 226.861Z" fill="#F8D2A1"/>
<path d="M495.569 227.511C500.121 247.553 498.278 274.313 498.278 274.313L505.106 274.746C512.583 259.037 511.933 224.261 507.923 209.635C505.539 201.076 504.239 192.409 498.387 191.001C494.702 190.134 487.225 192.842 486.249 196.418C484.082 204.326 493.293 217.652 495.569 227.511Z" fill="#D3041C"/>
<path d="M494.595 281.031C493.078 283.956 492.428 286.014 493.295 286.773C493.945 287.315 494.92 284.498 496.112 283.523C496.437 284.714 496.546 286.881 495.787 288.723C494.92 290.781 495.028 292.515 496.546 292.731C498.171 292.84 500.664 292.731 501.205 291.431C501.747 290.131 503.048 284.714 503.806 282.873C504.456 281.031 503.59 278.972 503.806 277.889C504.023 276.806 499.146 275.072 499.146 275.072C498.93 275.506 497.413 277.564 497.413 277.564C497.413 277.564 496.112 279.081 495.679 279.406C495.245 279.622 494.595 281.031 494.595 281.031Z" fill="#F8D2A1"/>
<path d="M457.207 0V47.669" stroke="#EE2D43" stroke-width="0.25" stroke-miterlimit="10"/>
<path d="M457.317 73.6705C461.926 73.6705 465.661 69.9356 465.661 65.3284C465.661 60.7212 461.926 56.9863 457.317 56.9863C452.709 56.9863 448.973 60.7212 448.973 65.3284C448.973 69.9356 452.709 73.6705 457.317 73.6705Z" fill="#EE2D43"/>
<path d="M496.762 68.9041H417.762L452.331 43.7695H462.193L496.762 68.9041Z" fill="#006B4F"/>
<path d="M85.5039 0V47.669" stroke="#EE2D43" stroke-width="0.25" stroke-miterlimit="10"/>
<path d="M85.6139 73.6705C90.2224 73.6705 93.9583 69.9356 93.9583 65.3284C93.9583 60.7212 90.2224 56.9863 85.6139 56.9863C81.0054 56.9863 77.2695 60.7212 77.2695 65.3284C77.2695 69.9356 81.0054 73.6705 85.6139 73.6705Z" fill="#EE2D43"/>
<path d="M124.95 68.9041H45.9492L80.5188 43.7695H90.3803L124.95 68.9041Z" fill="#006B4F"/>
<path d="M0 342.676H540" stroke="#A6AEBA" stroke-width="0.5" stroke-miterlimit="10"/>
<path d="M196.254 176.809C196.254 176.809 197.879 172.692 200.914 169.117C203.948 165.433 208.5 159.475 208.5 159.475C208.5 159.475 206.332 163.808 203.298 168.683C200.372 173.45 196.254 176.809 196.254 176.809Z" fill="#006B4F"/>
<path d="M199.398 169.766C199.398 169.766 202.758 167.166 204.708 161.533C206.767 156.007 208.501 151.674 208.501 151.674C208.501 151.674 204.167 157.849 202.324 162.183C200.59 166.516 199.398 169.766 199.398 169.766Z" fill="#006B4F"/>
<path d="M196.58 176.05C196.58 176.05 198.314 169.658 198.639 164.566C198.964 159.474 198.964 156.332 198.964 156.332C198.964 156.332 196.796 165.541 196.038 169.441C195.388 173.341 196.58 176.05 196.58 176.05Z" fill="#50CC85"/>
<path d="M195.064 180.275C195.064 180.275 195.606 173.666 193.763 167.816C191.921 161.966 191.813 158.174 191.813 158.174C191.813 158.174 190.946 164.349 192.029 169.658C193.005 174.966 195.064 180.275 195.064 180.275Z" fill="#50CC85"/>
<path d="M195.605 178.758C195.605 178.758 200.265 174.749 202.649 173.883C205.034 172.908 208.285 170.199 208.285 170.199C208.285 170.199 204.275 175.399 201.999 176.375C199.615 177.458 195.605 178.758 195.605 178.758Z" fill="#50CC85"/>
<path d="M193.978 184.391C193.978 184.391 194.412 180.816 192.353 175.724C190.294 170.632 189.752 168.141 189.752 168.141C189.752 168.141 189.644 175.074 191.052 177.674C192.353 180.166 193.978 184.391 193.978 184.391Z" fill="#50CC85"/>
<path d="M194.41 181.792C194.41 181.792 197.119 179.951 199.72 179.626C202.321 179.301 202.971 178.867 202.971 178.867C202.971 178.867 201.671 181.251 198.528 181.684C195.277 182.117 194.41 181.792 194.41 181.792Z" fill="#028A67"/>
<path d="M192.68 187.75C193.222 185.475 193.98 182.008 194.739 179.733C196.473 174.641 200.482 167.924 200.482 167.924C197.99 173.341 196.256 176.483 194.955 181.141C194.414 182.983 193.655 185.583 193.113 187.316C193.113 187.858 192.68 188.183 192.68 187.75Z" fill="#50CC85"/>
<path d="M193.871 178.649C193.871 178.649 193.655 173.991 191.812 169.224C190.078 164.565 187.586 156.873 187.586 156.873C187.586 156.873 188.345 161.965 189.645 167.924C190.945 173.882 193.871 178.649 193.871 178.649Z" fill="#77E6A6"/>
<path d="M193.112 170.416C193.112 170.416 190.62 166.624 190.512 160.341C190.403 154.057 190.078 149.182 190.078 149.182C190.078 149.182 192.246 156.982 192.679 161.857C193.112 166.841 193.112 170.416 193.112 170.416Z" fill="#77E6A6"/>
<path d="M193.871 177.783C193.871 177.783 194.305 170.741 195.713 165.54C197.122 160.34 198.314 157.09 198.314 157.09C198.314 157.09 197.339 167.165 196.689 171.282C195.93 175.507 193.871 177.783 193.871 177.783Z" fill="#77E6A6"/>
<path d="M193.98 182.551C193.98 182.551 195.714 175.726 199.616 170.525C203.517 165.217 204.926 161.533 204.926 161.533C204.926 161.533 203.734 168.034 200.808 173.017C197.773 177.892 193.98 182.551 193.98 182.551Z" fill="#77E6A6"/>
<path d="M193.87 180.924C193.87 180.924 190.511 175.291 188.56 173.557C186.501 171.824 184.117 167.924 184.117 167.924C184.117 167.924 186.393 174.532 188.344 176.374C190.294 178.108 193.87 180.924 193.87 180.924Z" fill="#77E6A6"/>
<path d="M193.547 187.1C193.547 187.1 194.305 183.308 198.207 178.975C202.108 174.641 203.408 172.258 203.408 172.258C203.408 172.258 201.133 179.191 198.857 181.358C196.581 183.417 193.547 187.1 193.547 187.1Z" fill="#77E6A6"/>
<path d="M194.086 184.284C194.086 184.284 192.027 181.575 189.534 180.275C187.042 178.975 186.5 178.434 186.5 178.434C186.5 178.434 186.933 181.25 190.076 182.767C193.11 184.284 194.086 184.284 194.086 184.284Z" fill="#77E6A6"/>
<path d="M193.763 191C193.98 188.508 194.414 184.825 194.414 182.116C194.522 176.374 192.68 168.357 192.68 168.357C193.222 174.749 193.98 178.433 193.655 183.633C193.547 185.692 193.438 188.617 193.33 190.459C193.222 190.892 193.438 191.325 193.763 191Z" fill="#50CC85"/>
<path d="M190.293 179.625C190.293 179.625 188.667 175.508 185.633 171.933C182.598 168.25 178.047 162.291 178.047 162.291C178.047 162.291 180.214 166.625 183.249 171.5C186.283 176.267 190.293 179.625 190.293 179.625Z" fill="#50CC85"/>
<path d="M187.15 172.475C187.15 172.475 183.79 169.875 181.84 164.242C179.781 158.716 178.047 154.383 178.047 154.383C178.047 154.383 182.382 160.558 184.224 164.892C186.066 169.334 187.15 172.475 187.15 172.475Z" fill="#028A67"/>
<path d="M190.076 178.868C190.076 178.868 188.342 172.476 188.017 167.384C187.691 162.292 187.691 159.15 187.691 159.15C187.691 159.15 189.859 168.359 190.617 172.259C191.159 176.16 190.076 178.868 190.076 178.868Z" fill="#006B4F"/>
<path d="M191.594 183.093C191.594 183.093 191.052 176.485 192.894 170.634C194.737 164.784 194.845 160.992 194.845 160.992C194.845 160.992 195.712 167.167 194.628 172.476C193.544 177.785 191.594 183.093 191.594 183.093Z" fill="#006B4F"/>
<path d="M191.05 181.576C191.05 181.576 186.39 177.568 184.006 176.701C181.622 175.726 178.371 173.018 178.371 173.018C178.371 173.018 182.381 178.218 184.656 179.193C186.932 180.276 191.05 181.576 191.05 181.576Z" fill="#006B4F"/>
<path d="M192.675 187.21C192.675 187.21 192.241 183.635 194.3 178.543C196.359 173.451 196.901 170.959 196.901 170.959C196.901 170.959 197.01 177.893 195.601 180.493C194.192 182.985 192.675 187.21 192.675 187.21Z" fill="#50CC85"/>
<path d="M192.245 184.609C192.245 184.609 189.535 182.767 186.935 182.442C184.334 182.117 183.684 181.684 183.684 181.684C183.684 181.684 184.984 184.067 188.127 184.5C191.378 184.934 192.245 184.609 192.245 184.609Z" fill="#50CC85"/>
<path d="M193.978 190.568C193.436 188.293 192.678 184.826 191.919 182.551C190.185 177.459 186.176 170.742 186.176 170.742C188.668 176.159 190.402 179.301 191.703 183.959C192.244 185.801 193.003 188.401 193.545 190.135C193.545 190.676 193.87 191.001 193.978 190.568Z" fill="#50CC85"/>
<path d="M199.827 206.384H187.257L183.355 184.066H204.271L199.827 206.384Z" fill="#D2DCEB"/>
<path d="M344.285 212.453L365.2 342.784H369.21L352.738 212.453H344.285Z" fill="#DCA86E"/>
<path d="M200.588 212.561L173.387 343H167.969L189.317 212.561H200.588Z" fill="#DCA86E"/>
<path d="M382.104 204.869H157.781V214.945H382.104V204.869Z" fill="#DCA86E"/>
<path d="M392.943 204.869H147.055V211.586H392.943V204.869Z" fill="#F3BA7A"/>
<path d="M324.235 201.293H315.458L306.68 145.607H313.399L324.235 201.293Z" fill="#A6AEBA"/>
<path d="M321.635 201.293H287.607L278.938 145.607H312.965L321.635 201.293Z" fill="#D2DCEB"/>
<path d="M324.234 200.102H287.172V204.218H324.234V200.102Z" fill="#D2DCEB"/>
<path d="M370.941 200.102H324.234V204.218H370.941V200.102Z" fill="#A6AEBA"/>
<path d="M250.005 204.002H245.128C243.178 204.002 241.444 202.594 241.119 200.535L239.168 188.076H255.857L253.906 200.535C253.689 202.594 251.955 204.002 250.005 204.002Z" fill="#A6AEBA"/>
<path d="M254.448 201.401C254.231 201.401 254.123 201.401 253.906 201.401H253.69L253.473 201.293C253.364 201.184 250.547 199.018 250.547 195.876C250.547 192.626 252.714 190.025 255.315 190.025C256.941 190.025 258.349 190.675 259.216 191.65C259.867 192.409 260.517 193.817 260.083 195.984C259.541 199.343 257.482 201.401 254.448 201.401ZM254.34 199.884C257.374 199.993 258.349 197.609 258.675 195.659C258.891 194.359 258.675 193.276 258.133 192.517C257.591 191.759 256.507 191.434 255.423 191.434C253.581 191.434 252.172 193.384 252.172 195.767C252.064 197.717 253.798 199.343 254.34 199.884Z" fill="#A6AEBA"/>
<path d="M245 195.183V194.973H245.136V194.995H245.026V195.065H245.122V195.088H245.026V195.16H245.136V195.183H245Z" fill="black"/>
<path d="M245.277 195.183L245.356 194.973H245.389L245.468 195.183H245.442L245.42 195.125H245.325L245.304 195.183H245.277ZM245.334 195.102H245.412L245.374 195H245.372L245.334 195.102Z" fill="black"/>
<path d="M245.979 195.183V195.102L245.902 194.973H245.931L245.991 195.076H245.994L246.054 194.973H246.081L246.005 195.102V195.183H245.979Z" fill="black"/>
<path d="M246.453 195.183V194.973H246.545C246.558 194.973 246.569 194.974 246.577 194.977C246.585 194.981 246.591 194.986 246.595 194.991C246.599 194.997 246.602 195.004 246.603 195.012C246.604 195.02 246.605 195.028 246.605 195.038C246.605 195.047 246.604 195.056 246.603 195.064C246.602 195.072 246.599 195.079 246.595 195.085C246.591 195.091 246.584 195.096 246.576 195.099C246.568 195.103 246.557 195.105 246.544 195.105H246.479V195.182H246.453V195.183ZM246.479 195.082H246.536C246.545 195.082 246.553 195.081 246.559 195.079C246.564 195.078 246.569 195.075 246.572 195.072C246.575 195.068 246.577 195.064 246.578 195.058C246.578 195.053 246.579 195.046 246.579 195.038C246.579 195.03 246.578 195.024 246.578 195.018C246.577 195.013 246.575 195.008 246.572 195.004C246.569 195.001 246.565 194.998 246.559 194.997C246.553 194.995 246.545 194.994 246.536 194.994H246.479V195.082H246.479Z" fill="black"/>
<path d="M246.73 195.183L246.81 194.973H246.842L246.922 195.183H246.895L246.873 195.125H246.779L246.757 195.183H246.73ZM246.786 195.102H246.864L246.826 195H246.825L246.786 195.102Z" fill="black"/>
<path d="M247.108 195.183V195.102L247.031 194.973H247.059L247.12 195.076H247.122L247.182 194.973H247.21L247.134 195.102V195.183H247.108Z" fill="black"/>
<path d="M247.359 195.183V194.973H247.395L247.467 195.14H247.468L247.539 194.973H247.574V195.183H247.549V195.015H247.548L247.476 195.183H247.457L247.385 195.015H247.384V195.183H247.359Z" fill="black"/>
<path d="M247.754 195.183V194.973H247.891V194.995H247.781V195.065H247.876V195.088H247.781V195.16H247.891V195.183H247.754Z" fill="black"/>
<path d="M248.055 195.183V194.973H248.081L248.19 195.134H248.191V194.973H248.216V195.183H248.191L248.081 195.019H248.079V195.183H248.055Z" fill="black"/>
<path d="M248.441 195.183V194.996H248.375V194.973H248.534V194.996H248.468V195.183H248.441Z" fill="black"/>
<path d="M248.931 195.186C248.924 195.186 248.915 195.186 248.907 195.185C248.898 195.184 248.889 195.184 248.88 195.183C248.872 195.183 248.865 195.182 248.858 195.181V195.159C248.865 195.16 248.873 195.161 248.88 195.161C248.889 195.162 248.896 195.163 248.904 195.163C248.911 195.163 248.918 195.163 248.923 195.163C248.934 195.163 248.942 195.163 248.949 195.162C248.955 195.161 248.961 195.159 248.966 195.157C248.968 195.155 248.971 195.152 248.973 195.149C248.974 195.146 248.975 195.142 248.975 195.138C248.975 195.134 248.976 195.13 248.976 195.125C248.976 195.118 248.976 195.113 248.975 195.108C248.975 195.104 248.974 195.101 248.972 195.099C248.97 195.097 248.967 195.095 248.964 195.093C248.959 195.092 248.955 195.091 248.948 195.09L248.896 195.085C248.886 195.084 248.878 195.082 248.872 195.079C248.866 195.076 248.862 195.072 248.859 195.068C248.856 195.063 248.854 195.057 248.853 195.051C248.852 195.045 248.852 195.037 248.852 195.03C248.852 195.017 248.853 195.007 248.856 194.999C248.86 194.991 248.865 194.985 248.871 194.981C248.877 194.977 248.885 194.974 248.894 194.973C248.903 194.971 248.914 194.971 248.926 194.971C248.933 194.971 248.942 194.971 248.95 194.971C248.958 194.972 248.966 194.972 248.973 194.973C248.979 194.973 248.986 194.974 248.99 194.976V194.997C248.985 194.996 248.979 194.995 248.972 194.995C248.965 194.994 248.958 194.993 248.951 194.993C248.943 194.993 248.937 194.993 248.93 194.993C248.919 194.993 248.91 194.993 248.903 194.994C248.896 194.995 248.891 194.997 248.887 195C248.882 195.002 248.879 195.006 248.878 195.011C248.877 195.015 248.877 195.021 248.877 195.028C248.877 195.036 248.878 195.042 248.878 195.046C248.88 195.051 248.882 195.054 248.886 195.055C248.889 195.057 248.896 195.058 248.903 195.06L248.954 195.065C248.962 195.066 248.968 195.066 248.973 195.068C248.979 195.069 248.984 195.071 248.988 195.075C248.992 195.077 248.995 195.082 248.997 195.088C248.998 195.09 248.999 195.094 248.999 195.097C249 195.101 249.001 195.105 249.001 195.109C249.001 195.113 249.001 195.118 249.001 195.123C249.001 195.135 249 195.144 248.998 195.152C248.996 195.159 248.992 195.166 248.988 195.17C248.984 195.174 248.979 195.177 248.973 195.18C248.967 195.182 248.961 195.183 248.953 195.184C248.948 195.186 248.94 195.186 248.931 195.186Z" fill="black"/>
<path d="M249.22 195.183V195.102L249.145 194.973H249.173L249.233 195.076H249.235L249.296 194.973H249.323L249.247 195.102V195.183H249.22Z" fill="black"/>
<path d="M249.541 195.186C249.533 195.186 249.525 195.186 249.516 195.185C249.507 195.184 249.498 195.184 249.49 195.183C249.482 195.183 249.474 195.182 249.467 195.181V195.159C249.475 195.16 249.482 195.161 249.49 195.161C249.498 195.162 249.506 195.163 249.513 195.163C249.521 195.163 249.527 195.163 249.532 195.163C249.543 195.163 249.552 195.163 249.559 195.162C249.565 195.161 249.57 195.159 249.575 195.157C249.578 195.155 249.581 195.152 249.582 195.149C249.583 195.146 249.584 195.142 249.585 195.138C249.585 195.134 249.585 195.13 249.585 195.125C249.585 195.118 249.585 195.113 249.585 195.108C249.584 195.104 249.583 195.101 249.581 195.099C249.579 195.097 249.576 195.095 249.573 195.093C249.569 195.092 249.564 195.091 249.557 195.09L249.505 195.085C249.495 195.084 249.487 195.082 249.482 195.079C249.475 195.076 249.471 195.072 249.468 195.068C249.466 195.063 249.464 195.057 249.462 195.051C249.462 195.045 249.461 195.037 249.461 195.03C249.461 195.017 249.462 195.007 249.466 194.999C249.469 194.991 249.474 194.985 249.48 194.981C249.486 194.977 249.495 194.974 249.504 194.973C249.512 194.971 249.523 194.971 249.535 194.971C249.543 194.971 249.551 194.971 249.559 194.971C249.567 194.972 249.575 194.972 249.582 194.973C249.589 194.973 249.595 194.974 249.6 194.976V194.997C249.594 194.996 249.588 194.995 249.581 194.995C249.574 194.994 249.567 194.993 249.56 194.993C249.553 194.993 249.546 194.993 249.539 194.993C249.528 194.993 249.519 194.993 249.512 194.994C249.506 194.995 249.5 194.997 249.496 195C249.491 195.002 249.488 195.006 249.488 195.011C249.486 195.015 249.486 195.021 249.486 195.028C249.486 195.036 249.487 195.042 249.488 195.046C249.489 195.051 249.491 195.054 249.495 195.055C249.499 195.057 249.505 195.058 249.512 195.06L249.563 195.065C249.571 195.066 249.577 195.066 249.583 195.068C249.588 195.069 249.593 195.071 249.597 195.075C249.601 195.077 249.604 195.082 249.606 195.088C249.607 195.09 249.608 195.094 249.609 195.097C249.609 195.101 249.61 195.105 249.61 195.109C249.61 195.113 249.611 195.118 249.611 195.123C249.611 195.135 249.609 195.144 249.607 195.152C249.605 195.159 249.602 195.166 249.598 195.17C249.594 195.174 249.589 195.177 249.583 195.18C249.576 195.182 249.57 195.183 249.563 195.184C249.556 195.186 249.549 195.186 249.541 195.186Z" fill="black"/>
<path d="M249.824 195.183V194.996H249.758V194.973H249.917V194.996H249.851V195.183H249.824Z" fill="black"/>
<path d="M250.074 195.183V194.973H250.21V194.995H250.1V195.065H250.196V195.088H250.1V195.16H250.21V195.183H250.074Z" fill="black"/>
<path d="M250.375 195.183V194.973H250.41L250.482 195.14H250.483L250.554 194.973H250.59V195.183H250.564V195.015H250.563L250.491 195.183H250.472L250.4 195.015H250.4V195.183H250.375Z" fill="black"/>
<path d="M246.066 194.814L246.449 193.02H247.748L247.662 193.411H246.899L246.837 193.716H247.475L247.394 194.1H246.754L246.686 194.423H247.449L247.365 194.814H246.066Z" fill="#EE2D43"/>
<path d="M247.613 194.814L247.995 193.02H248.847C248.975 193.02 249.076 193.033 249.148 193.06C249.22 193.087 249.271 193.127 249.301 193.18C249.33 193.233 249.345 193.3 249.345 193.38C249.345 193.418 249.341 193.46 249.334 193.508C249.327 193.554 249.318 193.605 249.308 193.659C249.287 193.746 249.264 193.826 249.239 193.899C249.214 193.972 249.179 194.034 249.134 194.087C249.089 194.139 249.028 194.179 248.949 194.206C248.871 194.234 248.769 194.248 248.642 194.248H248.272L248.15 194.814H247.613V194.814ZM248.352 193.865H248.514C248.562 193.865 248.601 193.862 248.63 193.857C248.66 193.852 248.683 193.842 248.701 193.825C248.718 193.809 248.731 193.786 248.742 193.756C248.753 193.727 248.763 193.686 248.773 193.634C248.779 193.604 248.784 193.578 248.788 193.555C248.792 193.532 248.794 193.513 248.794 193.498C248.794 193.472 248.788 193.453 248.775 193.44C248.763 193.426 248.745 193.417 248.72 193.412C248.694 193.406 248.659 193.404 248.612 193.404H248.45L248.352 193.865Z" fill="#EE2D43"/>
<path d="M250.062 194.836C249.987 194.836 249.907 194.834 249.822 194.831C249.737 194.827 249.656 194.822 249.578 194.813C249.499 194.806 249.432 194.798 249.375 194.791L249.451 194.416C249.513 194.422 249.576 194.427 249.64 194.432C249.703 194.438 249.763 194.441 249.819 194.442C249.875 194.444 249.923 194.445 249.963 194.445C250.013 194.445 250.055 194.444 250.09 194.442C250.123 194.441 250.152 194.438 250.173 194.433C250.195 194.429 250.212 194.424 250.227 194.416C250.237 194.413 250.246 194.405 250.253 194.394C250.26 194.383 250.266 194.371 250.272 194.358C250.278 194.345 250.283 194.331 250.288 194.316C250.292 194.301 250.295 194.285 250.297 194.269C250.299 194.252 250.299 194.238 250.299 194.225C250.299 194.206 250.295 194.192 250.288 194.182C250.28 194.172 250.261 194.164 250.231 194.157C250.2 194.15 250.153 194.142 250.089 194.131L249.761 194.079C249.682 194.066 249.626 194.036 249.595 193.987C249.564 193.938 249.548 193.874 249.548 193.792C249.548 193.752 249.551 193.708 249.557 193.662C249.563 193.615 249.572 193.567 249.585 193.518C249.609 193.406 249.644 193.315 249.69 193.247C249.736 193.18 249.792 193.127 249.859 193.091C249.926 193.054 250.003 193.03 250.092 193.018C250.179 193.006 250.278 193 250.387 193C250.462 193 250.538 193.002 250.615 193.006C250.692 193.01 250.764 193.017 250.831 193.025C250.897 193.032 250.954 193.042 250.998 193.052L250.918 193.423C250.875 193.417 250.823 193.412 250.763 193.407C250.704 193.401 250.642 193.398 250.58 193.395C250.517 193.392 250.458 193.391 250.402 193.391C250.363 193.391 250.329 193.392 250.301 193.395C250.273 193.398 250.249 193.401 250.231 193.406C250.211 193.41 250.195 193.417 250.181 193.425C250.169 193.434 250.158 193.444 250.149 193.456C250.139 193.468 250.132 193.482 250.127 193.498C250.121 193.514 250.118 193.529 250.115 193.546C250.112 193.562 250.111 193.58 250.111 193.597C250.111 193.621 250.121 193.638 250.141 193.646C250.161 193.655 250.199 193.664 250.255 193.673L250.554 193.719C250.608 193.728 250.659 193.741 250.706 193.759C250.752 193.776 250.791 193.806 250.82 193.85C250.85 193.894 250.864 193.958 250.864 194.043C250.864 194.064 250.864 194.086 250.862 194.111C250.86 194.135 250.857 194.161 250.853 194.19C250.849 194.219 250.842 194.249 250.835 194.281C250.808 194.407 250.772 194.508 250.726 194.582C250.681 194.656 250.627 194.712 250.563 194.748C250.5 194.785 250.427 194.809 250.345 194.82C250.262 194.831 250.167 194.836 250.062 194.836Z" fill="#EE2D43"/>
<path d="M245.689 195.186C245.682 195.186 245.673 195.186 245.664 195.185C245.655 195.184 245.646 195.184 245.638 195.183C245.63 195.183 245.622 195.182 245.616 195.181V195.159C245.623 195.16 245.631 195.161 245.638 195.161C245.646 195.162 245.654 195.163 245.662 195.163C245.669 195.163 245.675 195.163 245.681 195.163C245.692 195.163 245.7 195.163 245.707 195.162C245.713 195.161 245.719 195.159 245.723 195.157C245.726 195.155 245.729 195.152 245.73 195.149C245.732 195.146 245.732 195.142 245.733 195.138C245.733 195.134 245.734 195.13 245.734 195.125C245.734 195.118 245.734 195.113 245.733 195.108C245.732 195.104 245.732 195.101 245.73 195.099C245.728 195.097 245.725 195.095 245.721 195.093C245.717 195.092 245.712 195.091 245.706 195.09L245.653 195.085C245.644 195.084 245.635 195.082 245.63 195.079C245.624 195.076 245.62 195.072 245.617 195.068C245.614 195.063 245.612 195.057 245.611 195.051C245.61 195.045 245.609 195.037 245.609 195.03C245.609 195.017 245.611 195.007 245.614 194.999C245.618 194.991 245.622 194.985 245.629 194.981C245.635 194.977 245.643 194.974 245.652 194.973C245.661 194.971 245.672 194.971 245.684 194.971C245.691 194.971 245.699 194.971 245.708 194.971C245.716 194.972 245.723 194.972 245.73 194.973C245.737 194.973 245.743 194.974 245.748 194.976V194.997C245.743 194.996 245.737 194.995 245.73 194.995C245.723 194.994 245.716 194.993 245.708 194.993C245.701 194.993 245.695 194.993 245.688 194.993C245.677 194.993 245.668 194.993 245.661 194.994C245.654 194.995 245.649 194.997 245.644 195C245.64 195.002 245.637 195.006 245.636 195.011C245.635 195.015 245.635 195.021 245.635 195.028C245.635 195.036 245.635 195.042 245.636 195.046C245.638 195.051 245.64 195.054 245.644 195.055C245.647 195.057 245.653 195.058 245.661 195.06L245.712 195.065C245.719 195.066 245.726 195.066 245.731 195.068C245.737 195.069 245.741 195.071 245.745 195.075C245.75 195.077 245.752 195.082 245.754 195.088C245.756 195.09 245.756 195.094 245.757 195.097C245.758 195.101 245.759 195.105 245.759 195.109C245.759 195.113 245.759 195.118 245.759 195.123C245.759 195.135 245.758 195.144 245.756 195.152C245.754 195.159 245.75 195.166 245.746 195.17C245.742 195.174 245.737 195.177 245.731 195.18C245.725 195.182 245.719 195.183 245.711 195.184C245.705 195.186 245.697 195.186 245.689 195.186Z" fill="black"/>
<path d="M246.046 193.512H245.335C245.299 193.512 245.271 193.48 245.279 193.446L245.367 193.062C245.373 193.037 245.396 193.02 245.424 193.02H246.134C246.171 193.02 246.198 193.052 246.191 193.086L246.102 193.47C246.096 193.495 246.072 193.512 246.046 193.512Z" fill="#006B4F"/>
<path d="M245.909 194.165H245.198C245.162 194.165 245.134 194.132 245.142 194.099L245.231 193.715C245.236 193.69 245.259 193.672 245.287 193.672H245.997C246.033 193.672 246.061 193.704 246.053 193.738L245.965 194.122C245.959 194.147 245.936 194.165 245.909 194.165Z" fill="#EE2D43"/>
<path d="M245.768 194.825H245.058C245.021 194.825 244.994 194.793 245.001 194.759L245.09 194.375C245.095 194.35 245.119 194.332 245.146 194.332H245.857C245.893 194.332 245.921 194.364 245.913 194.398L245.825 194.782C245.818 194.808 245.795 194.825 245.768 194.825Z" fill="#006B4F"/>
<path d="M237.543 205.086H258.675L262.143 201.402H234.184L237.543 205.086Z" fill="#D2DCEB"/>
<path d="M125.49 123.83H24.2734V342.674H125.49V123.83Z" fill="#B6BFCC"/>
<path d="M113.784 133.473H35.8672V156.44H113.784V133.473Z" fill="#D2DCEB"/>
<path d="M84.2016 147.664H65.5623C65.1288 147.664 64.6953 147.231 64.6953 146.797V143.005C64.6953 142.572 65.1288 142.139 65.5623 142.139H84.2016C84.6351 142.139 85.0686 142.572 85.0686 143.005V146.797C85.0686 147.339 84.6351 147.664 84.2016 147.664Z" fill="#006B4F"/>
<path d="M113.784 162.615H35.8672V185.583H113.784V162.615Z" fill="#D2DCEB"/>
<path d="M84.2016 176.916H65.5623C65.1288 176.916 64.6953 176.483 64.6953 176.049V172.257C64.6953 171.824 65.1288 171.391 65.5623 171.391H84.2016C84.6351 171.391 85.0686 171.824 85.0686 172.257V176.049C85.0686 176.483 84.6351 176.916 84.2016 176.916Z" fill="#006B4F"/>
<path d="M113.784 191.867H35.8672V214.835H113.784V191.867Z" fill="#D2DCEB"/>
<path d="M84.2016 206.058H65.5623C65.1288 206.058 64.6953 205.625 64.6953 205.192V201.4C64.6953 200.967 65.1288 200.533 65.5623 200.533H84.2016C84.6351 200.533 85.0686 200.967 85.0686 201.4V205.192C85.0686 205.733 84.6351 206.058 84.2016 206.058Z" fill="#006B4F"/>
<path d="M113.784 221.334H35.8672V333.789H113.784V221.334Z" fill="#D2DCEB"/>
<path d="M84.2016 235.635H65.5623C65.1288 235.635 64.6953 235.201 64.6953 234.768V230.976C64.6953 230.543 65.1288 230.109 65.5623 230.109H84.2016C84.6351 230.109 85.0686 230.543 85.0686 230.976V234.768C85.0686 235.201 84.6351 235.635 84.2016 235.635Z" fill="#006B4F"/>
</g>
<defs>
<linearGradient id="paint0_linear_3399_36591" x1="299.135" y1="316.438" x2="324.365" y2="334.966" gradientUnits="userSpaceOnUse">
<stop stop-color="#343A44"/>
<stop offset="0.3009" stop-color="#232D3E"/>
<stop offset="0.6391" stop-color="#182439"/>
<stop offset="1" stop-color="#142138"/>
</linearGradient>
<linearGradient id="paint1_linear_3399_36591" x1="341.69" y1="328.9" x2="372.996" y2="328.9" gradientUnits="userSpaceOnUse">
<stop stop-color="#343A44"/>
<stop offset="0.3009" stop-color="#232D3E"/>
<stop offset="0.6391" stop-color="#182439"/>
<stop offset="1" stop-color="#142138"/>
</linearGradient>
<linearGradient id="paint2_linear_3399_36591" x1="518.471" y1="186.763" x2="496.169" y2="161.194" gradientUnits="userSpaceOnUse">
<stop stop-color="#343A44"/>
<stop offset="0.3009" stop-color="#232D3E"/>
<stop offset="0.6391" stop-color="#182439"/>
<stop offset="1" stop-color="#142138"/>
</linearGradient>
<linearGradient id="paint3_linear_3399_36591" x1="399.955" y1="231.273" x2="503.746" y2="231.273" gradientUnits="userSpaceOnUse">
<stop stop-color="#666666"/>
<stop offset="0.3009" stop-color="#232D3E"/>
<stop offset="0.6391" stop-color="#182439"/>
<stop offset="1" stop-color="#142138"/>
</linearGradient>
<clipPath id="clip0_3399_36591">
<rect width="540" height="343" fill="white"/>
</clipPath>
</defs>
</svg>
